<?xml version="1.0" standalone="no"?>
<!DOCTYPE svg PUBLIC "-//W3C//DTD SVG 20010904//EN"
 "http://www.w3.org/TR/2001/REC-SVG-20010904/DTD/svg10.dtd">
<svg version="1.0" xmlns="http://www.w3.org/2000/svg"
 width="700.000000pt" height="700.000000pt" viewBox="0 0 700.000000 700.000000"
 preserveAspectRatio="xMidYMid meet">
<metadata>
Created by potrace 1.14, written by Peter Selinger 2001-2017
</metadata>
<g transform="translate(0.000000,700.000000) scale(0.100000,-0.100000)"
fill="#000000" stroke="none">
<path d="M1975 4699 c-759 -472 -1408 -877 -1443 -899 l-62 -39 2 -478 3 -478
240 -120 c132 -66 422 -210 645 -320 223 -109 691 -339 1040 -510 349 -172
681 -335 736 -363 l102 -51 1332 838 1333 839 35 -24 c91 -62 239 -71 347 -21
145 67 235 213 235 382 0 329 -343 527 -600 348 -162 -114 -220 -321 -146
-523 4 -11 -21 -32 -87 -72 -50 -31 -624 -392 -1275 -801 l-1184 -745 -241
119 c-133 65 -708 347 -1277 627 l-1035 509 0 373 0 374 1140 708 c627 390
1233 767 1347 837 l206 129 1192 -603 c655 -332 1195 -607 1200 -611 8 -9
-2534 -1641 -2549 -1637 -8 2 -1939 941 -1954 950 -7 4 -93 -165 -86 -171 9
-8 2045 -998 2054 -999 12 0 2925 1863 2925 1872 0 6 -992 511 -2200 1119
l-595 299 -1380 -858z"/>
</g>
</svg>
